# xmcd CD database file generated by Grip 3.2.0
# 
# Track frame offsets:
#       150
#       12843
#       26571
#       36571
#       48129
#       58486
#       69076
#       80755
#       95516
#       105313
#       114060
#       124136
#       135466
#       145921
#       156253
#       166432
#       175188
#       187856
#       198200
#       206727
# 
# Disc length: 2866 seconds
# 
# Revision: 1
# Processed by: cddbd v1.5.1PL2 Copyright (c) Steve Scherf et al.
# Submitted via: Grip 3.2.0
# 
DISCID=0d0b3014
DTITLE=Various Artist - Rhythm and Blues Goes Rock 'n' Roll - Vol 2 - Disc 7
DYEAR=2002
DGENRE=Other
TTITLE0=King Rhythm - Killer Diller
TTITLE1=Joe Neal - Tell Me Pretty Baby
TTITLE2=Papa Lightfoot - Jumpin' With Jarvis
TTITLE3=Julian Herrera - True Fine Mama
TTITLE4=Pigmeat Markham - Let's Have Some Heat
TTITLE5=Guitar Crusher - I Got To Know
TTITLE6=Buddy Johnson - Walk The Chalk Line
TTITLE7=Doctor Ross - Call The Doctor
TTITLE8=Lenny Capello - Tootles
TTITLE9=Gus Jenkins - Slow Down
TTITLE10=Mercy Baby - Pleadin'
TTITLE11=Charles Clark - Hidden Charms
TTITLE12=Sly Dell - Let Me Tell You About It
TTITLE13=Sil Austin - Say Lou
TTITLE14=Isley Brothers - Everybody's Gonna Roll
TTITLE15=Sonny and Jaycee - You Keep On Doggin' Me
TTITLE16=Lightnin' Hopkins - I'm Wild About You
TTITLE17=Stomp Gordon - Dragnet
TTITLE18=Eddie Lang - She's Mine All Mine
TTITLE19=The Valiants - The Tequila Twist
EXTD=YEAR: 2002
EXTT0=
EXTT1=
EXTT2=
EXTT3=
EXTT4=
EXTT5=
EXTT6=
EXTT7=
EXTT8=
EXTT9=
EXTT10=
EXTT11=
EXTT12=
EXTT13=
EXTT14=
EXTT15=
EXTT16=
EXTT17=
EXTT18=
EXTT19=
PLAYORDER=
